<svg xmlns="http://www.w3.org/2000/svg" viewBox="0 0 450 450" width="450" height="450" preserveAspectRatio="xMidYMid meet" style="width: 100%; height: 100%; transform: translate3d(0px, 0px, 0px);">
  <defs>
    <clipPath id="__lottie_element_2">
      <rect width="450" height="450" x="0" y="0"></rect>
    </clipPath>
    <mask id="__lottie_element_3" mask-type="alpha">
      <g clip-path="url(#__lottie_element_4)" transform="matrix(1,0,0,1,0,0)" opacity="1" style="display: block;">
        <g style="display: block;" transform="matrix(1,0,0,1,-319,-395)" opacity="1">
          <g fill="none" stroke-linecap="round" stroke-dashoffset="1" stroke="rgb(255,255,255)" stroke-width="38" opacity="1">
            <path d=" M529.5,442.5 C529.5,442.5 384,454.5 367,608 C361,683.5 410.5,759 465,786 C508,803 538,744 500.5,717.5 C463,691 426,666.5 426,666.5" stroke-dasharray="1 5.7"></path>
          </g>
        </g>
      </g>
    </mask>
    <clipPath id="__lottie_element_4">
      <path d="M0,0 L450,0 L450,450 L0,450z"></path>
    </clipPath>
    <path d="" fill-opacity="1"></path>
    <mask id="__lottie_element_13" mask-type="alpha">
      <g clip-path="url(#__lottie_element_14)" style="display: block;" transform="matrix(1,0,0,1,0,0)" opacity="1">
        <g style="display: block;" transform="matrix(1,0,0,1,-319.0000305175781,-395)" opacity="1">
          <g fill="none" stroke-linecap="round" stroke-dashoffset="1" stroke="rgb(255,255,255)" stroke-width="38" opacity="1">
            <path d=" M564,443 C564,443 727,461 727,625 C727,687 688.9959716796875,749.7919921875 629.25,783.25 C583.25,802.25 559.5,744 592,719 C622,696 666.5,668 666.5,668" stroke-dasharray="1 5.7"></path>
          </g>
        </g>
      </g>
    </mask>
    <clipPath id="__lottie_element_14">
      <path d="M0,0 L450,0 L450,450 L0,450z"></path>
    </clipPath>
    <path d="" fill-opacity="1"></path>
  </defs>
  <g clip-path="url(#__lottie_element_2)">
    <g style="display: block;" transform="matrix(0.9999969601631165,0,0,0.9999969601631165,-318.99835205078125,-394.9979553222656)" opacity="1">
      <g opacity="1" transform="matrix(1,0,0,1,546.7839965820312,618.2869873046875)">
        <path fill="rgb(93,219,119)" fill-opacity="1" d=" M-0.041999999433755875,53.71099853515625 C-7.166999816894531,53.71099853515625 -14.288000106811523,51.56700134277344 -20.364999771118164,47.28900146484375 C-20.364999771118164,47.28900146484375 -121.01770782470703,-23.65468978881836 -121.01770782470703,-23.65468978881836 C-127.83870697021484,-28.458690643310547 -129.4656982421875,-37.88468933105469 -124.66170501708984,-44.704689025878906 C-119.85770416259766,-51.52069091796875 -110.42170715332031,-53.14768981933594 -103.61070251464844,-48.348690032958984 C-103.61070251464844,-48.348690032958984 -2.9679999351501465,22.594999313354492 -2.9679999351501465,22.594999313354492 C-1.2230000495910645,23.823999404907227 1.1469999551773071,23.815000534057617 2.8940000534057617,22.584999084472656 C2.8940000534057617,22.584999084472656 103.61970520019531,-48.35369110107422 103.61970520019531,-48.35369110107422 C110.41570281982422,-53.14768981933594 119.86670684814453,-51.515689849853516 124.66570281982422,-44.70069122314453 C129.46470642089844,-37.87968826293945 127.83270263671875,-28.453689575195312 121.00670623779297,-23.649690628051758 C121.00670623779297,-23.649690628051758 20.2810001373291,47.28900146484375 20.2810001373291,47.28900146484375 C14.20300006866455,51.56700134277344 7.078000068664551,53.71099853515625 -0.041999999433755875,53.71099853515625z"></path>
      </g>
    </g>
    <g style="display: block;" transform="matrix(0.9999973773956299,0,0,0.9999973773956299,-318.99859619140625,-394.9985656738281)" opacity="1">
      <g opacity="1" transform="matrix(1,0,0,1,546.7839965820312,544.5989990234375)">
        <path fill="rgb(93,219,119)" fill-opacity="1" d=" M-0.003000000026077032,37.698001861572266 C-7.11899995803833,37.698001861572266 -14.234000205993652,35.558998107910156 -20.302000045776367,31.2810001373291 C-20.302000045776367,31.2810001373291 -71.7593002319336,-5.019495010375977 -71.7593002319336,-5.019495010375977 C-78.57929992675781,-9.823494911193848 -80.2072982788086,-19.249494552612305 -75.4032974243164,-26.069494247436523 C-70.60430145263672,-32.885494232177734 -61.17729949951172,-34.52249526977539 -54.352298736572266,-29.7134952545166 C-54.352298736572266,-29.7134952545166 -2.8989999294281006,6.586999893188477 -2.8989999294281006,6.586999893188477 C-1.1690000295639038,7.806000232696533 1.156999945640564,7.806000232696533 2.8980000019073486,6.586999893188477 C2.8980000019073486,6.586999893188477 54.35029983520508,-29.67278289794922 54.35029983520508,-29.67278289794922 C61.15629959106445,-34.476783752441406 70.5873031616211,-32.85478210449219 75.40630340576172,-26.028783798217773 C80.206298828125,-19.208784103393555 78.57330322265625,-9.782783508300781 71.7573013305664,-4.978783130645752 C71.7573013305664,-4.978783130645752 20.299999237060547,31.2810001373291 20.299999237060547,31.2810001373291 C14.222999572753906,35.558998107910156 7.111999988555908,37.698001861572266 -0.003000000026077032,37.698001861572266z"></path>
      </g>
    </g>
    <g mask="url(#__lottie_element_13)" style="display: block;">
      <g transform="matrix(1,0,0,1,-319,-395)" opacity="1">
        <g opacity="1" transform="matrix(1,0,0,1,652.1790161132812,615.8920288085938)">
          <path fill="rgb(93,219,119)" fill-opacity="1" d=" M-39.224998474121094,186.61000061035156 C-48.459999084472656,186.61000061035156 -57.65599822998047,184.0919952392578 -65.89700317382812,179.08700561523438 C-81.16899871826172,169.78399658203125 -90.2959976196289,153.5469970703125 -90.2959976196289,135.63800048828125 C-90.2959976196289,117.31600189208984 -81.35700225830078,100.06700134277344 -66.37799835205078,89.51399993896484 C-66.37799835205078,89.51399993896484 -7.164000034332275,47.7869987487793 -7.164000034332275,47.7869987487793 C-0.36000001430511475,42.97700119018555 9.071999549865723,44.61000061035156 13.880999565124512,51.42499923706055 C18.690000534057617,58.24100112915039 17.05699920654297,67.6719970703125 10.241999626159668,72.47100067138672 C10.241999626159668,72.47100067138672 -48.97100067138672,114.20899963378906 -48.97100067138672,114.20899963378906 C-55.933998107910156,119.11599731445312 -60.08399963378906,127.12200164794922 -60.08399963378906,135.63800048828125 C-60.08399963378906,143.0240020751953 -56.474998474121094,149.4459991455078 -50.191001892089844,153.27099609375 C-43.80799865722656,157.14599609375 -36.00899887084961,157.40199279785156 -29.283000946044922,153.92100524902344 C25.839000701904297,125.35099792480469 60.08399963378906,69.10700225830078 60.08399963378906,7.139999866485596 C60.08399963378906,-72.55899810791016 3.180999994277954,-140.90899658203125 -75.22000122070312,-155.3800048828125 C-83.4209976196289,-156.89500427246094 -88.83999633789062,-164.77200317382812 -87.3270034790039,-172.97900390625 C-85.8219985961914,-181.1909942626953 -77.90499877929688,-186.61000061035156 -69.73200225830078,-185.08999633789062 C22.99799919128418,-167.97799682617188 90.2959976196289,-87.13400268554688 90.2959976196289,7.139999866485596 C90.2959976196289,80.43699645996094 49.79600143432617,146.95799255371094 -15.38599967956543,180.74899291992188 C-22.950000762939453,184.66299438476562 -31.101999282836914,186.61000061035156 -39.224998474121094,186.61000061035156z"></path>
        </g>
      </g>
    </g>
    <g mask="url(#__lottie_element_3)" style="display: block;">
      <g transform="matrix(1,0,0,1,-319,-395)" opacity="1">
        <g opacity="1" transform="matrix(1,0,0,1,438.0539855957031,615.9119873046875)">
          <path fill="rgb(93,219,119)" fill-opacity="1" d=" M42.41899871826172,186.71800231933594 C34.64500045776367,186.71800231933594 26.865999221801758,184.88900756835938 19.66699981689453,181.21099853515625 C-52.11000061035156,144.50900268554688 -93.62200164794922,68.79199981689453 -86.08300018310547,-11.697999954223633 C-77.9800033569336,-98.19300079345703 -12.531000137329102,-169.56199645996094 73.08300018310547,-185.25799560546875 C81.33899688720703,-186.71800231933594 89.16300201416016,-181.31900024414062 90.66799926757812,-173.1219940185547 C92.1719970703125,-164.9149932861328 86.73799896240234,-157.04299926757812 78.53099822998047,-155.53799438476562 C6.164000034332275,-142.2760009765625 -49.154998779296875,-81.96600341796875 -56,-8.88599967956543 C-62.38199996948242,59.2140007019043 -27.277999877929688,123.2760009765625 33.41999816894531,154.3040008544922 C39.7140007019043,157.52999877929688 46.88399887084961,157.1959991455078 53.0890007019043,153.41799926757812 C59.55099868774414,149.46499633789062 63.4109992980957,142.6300048828125 63.4109992980957,135.12600708007812 C63.4109992980957,126.92400360107422 59.40800094604492,119.2040023803711 52.70100021362305,114.4739990234375 C52.70100021362305,114.4739990234375 -6.910999774932861,72.45099639892578 -6.910999774932861,72.45099639892578 C-13.730999946594238,67.6520004272461 -15.359000205993652,58.22100067138672 -10.555000305175781,51.40599822998047 C-5.741000175476074,44.599998474121094 3.680999994277954,42.946998596191406 10.496000289916992,47.766998291015625 C10.496000289916992,47.766998291015625 70.10800170898438,89.78900146484375 70.10800170898438,89.78900146484375 C84.83100128173828,100.16400146484375 93.62200164794922,117.11000061035156 93.62200164794922,135.12600708007812 C93.62200164794922,153.23199462890625 84.36299896240234,169.70399475097656 68.8550033569336,179.19500732421875 C60.672000885009766,184.1909942626953 51.54499816894531,186.71800231933594 42.41899871826172,186.71800231933594z"></path>
        </g>
      </g>
    </g>
  </g>
</svg>